{
    "asset" : {
        "generator" : "Khronos glTF Blender I/O v3.4.50",
        "version" : "2.0"
    },
    "scene" : 0,
    "scenes" : [
        {
            "name" : "Scene",
            "nodes" : [
                5,
                6
            ]
        }
    ],
    "nodes" : [
        {
            "mesh" : 0,
            "name" : "basicHead_0_0.002"
        },
        {
            "children" : [
                0
            ],
            "name" : "basicHead_0",
            "rotation" : [
                0.7071067690849304,
                0,
                0,
                0.7071068286895752
            ],
            "scale" : [
                0.3814300298690796,
                0.3814300000667572,
                0.3814300000667572
            ]
        },
        {
            "mesh" : 1,
            "name" : "Sphere_0"
        },
        {
            "children" : [
                2
            ],
            "name" : "Sphere",
            "scale" : [
                13.171119689941406,
                13.171119689941406,
                13.171119689941406
            ],
            "translation" : [
                0,
                0.20378001034259796,
                0.2600800096988678
            ]
        },
        {
            "children" : [
                1,
                3
            ],
            "name" : "Root"
        },
        {
            "children" : [
                4
            ],
            "name" : "Sketchfab_model",
            "rotation" : [
                -0.70710688829422,
                0,
                0,
                0.7071066498756409
            ],
            "scale" : [
                0.009493851102888584,
                0.009493852034211159,
                0.009493852034211159
            ]
        },
        {
            "name" : "Lamp.001"
        }
    ],
    "materials" : [
        {
            "doubleSided" : true,
            "name" : "Root",
            "pbrMetallicRoughness" : {
                "baseColorFactor" : [
                    0.6912592649459839,
                    0.37039196491241455,
                    0.2820573151111603,
                    1
                ],
                "metallicFactor" : 0.05999999865889549,
                "roughnessFactor" : 0.5
            }
        }
    ],
    "meshes" : [
        {
            "name" : "basicHead_0_0.002",
            "primitives" : [
                {
                    "attributes" : {
                        "POSITION" : 0,
                        "TEXCOORD_0" : 1,
                        "NORMAL" : 2
                    },
                    "indices" : 3,
                    "material" : 0
                }
            ]
        },
        {
            "name" : "Sphere_0",
            "primitives" : [
                {
                    "attributes" : {
                        "POSITION" : 4,
                        "NORMAL" : 5
                    },
                    "indices" : 6,
                    "material" : 0
                }
            ]
        }
    ],
    "accessors" : [
        {
            "bufferView" : 0,
            "componentType" : 5126,
            "count" : 181354,
            "max" : [
                73.12606811523438,
                98.12689208984375,
                70.1913833618164
            ],
            "min" : [
                -73.13276672363281,
                -98.6117935180664,
                -56.6318244934082
            ],
            "type" : "VEC3"
        },
        {
            "bufferView" : 1,
            "componentType" : 5126,
            "count" : 181354,
            "type" : "VEC2"
        },
        {
            "bufferView" : 2,
            "componentType" : 5126,
            "count" : 181354,
            "type" : "VEC3"
        },
        {
            "bufferView" : 3,
            "componentType" : 5125,
            "count" : 1087122,
            "type" : "SCALAR"
        },
        {
            "bufferView" : 4,
            "componentType" : 5126,
            "count" : 1028,
            "max" : [
                0.7030900120735168,
                -0.9192399978637695,
                1.7773100137710571
            ],
            "min" : [
                -0.7030900120735168,
                -1.4715800285339355,
                1.2381000518798828
            ],
            "type" : "VEC3"
        },
        {
            "bufferView" : 5,
            "componentType" : 5126,
            "count" : 1028,
            "type" : "VEC3"
        },
        {
            "bufferView" : 6,
            "componentType" : 5123,
            "count" : 5760,
            "type" : "SCALAR"
        }
    ],
    "bufferViews" : [
        {
            "buffer" : 0,
            "byteLength" : 2176248,
            "byteOffset" : 0,
            "target" : 34962
        },
        {
            "buffer" : 0,
            "byteLength" : 1450832,
            "byteOffset" : 2176248,
            "target" : 34962
        },
        {
            "buffer" : 0,
            "byteLength" : 2176248,
            "byteOffset" : 3627080,
            "target" : 34962
        },
        {
            "buffer" : 0,
            "byteLength" : 4348488,
            "byteOffset" : 5803328,
            "target" : 34963
        },
        {
            "buffer" : 0,
            "byteLength" : 12336,
            "byteOffset" : 10151816,
            "target" : 34962
        },
        {
            "buffer" : 0,
            "byteLength" : 12336,
            "byteOffset" : 10164152,
            "target" : 34962
        },
        {
            "buffer" : 0,
            "byteLength" : 11520,
            "byteOffset" : 10176488,
            "target" : 34963
        }
    ],
    "buffers" : [
        {
            "byteLength" : 10188008,
            "uri" : "scene.bin"
        }
    ]
}
