{
  "accessors": [
    {
      "bufferView": 2,
      "componentType": 5126,
      "count": 65532,
      "max": [
        257.9367980957031,
        417.66241455078125,
        162.9064178466797
      ],
      "min": [
        -638.6857299804688,
        -270.6564025878906,
        -146.69918823242188
      ],
      "type": "VEC3"
    },
    {
      "bufferView": 2,
      "byteOffset": 786384,
      "componentType": 5126,
      "count": 65532,
      "max": [
        0.9998645782470703,
        0.9999914169311523,
        1.0
      ],
      "min": [
        -0.9998819231987,
        -0.9999909400939941,
        -1.0
      ],
      "type": "VEC3"
    },
    {
      "bufferView": 1,
      "componentType": 5126,
      "count": 65532,
      "max": [
        1.0,
        1.0
      ],
      "min": [
        0.0,
        0.0
      ],
      "type": "VEC2"
    },
    {
      "bufferView": 0,
      "componentType": 5125,
      "count": 117909,
      "type": "SCALAR"
    },
    {
      "bufferView": 2,
      "byteOffset": 1572768,
      "componentType": 5126,
      "count": 65532,
      "max": [
        171.54080200195313,
        262.2984924316406,
        50.616851806640625
      ],
      "min": [
        -305.4162292480469,
        -115.58096313476563,
        -136.8240203857422
      ],
      "type": "VEC3"
    },
    {
      "bufferView": 2,
      "byteOffset": 2359152,
      "componentType": 5126,
      "count": 65532,
      "max": [
        0.9999570250511169,
        0.9999881982803345,
        1.0
      ],
      "min": [
        -0.9999569058418274,
        -0.9999791383743286,
        -1.0
      ],
      "type": "VEC3"
    },
    {
      "bufferView": 1,
      "byteOffset": 524256,
      "componentType": 5126,
      "count": 65532,
      "max": [
        1.0,
        1.0
      ],
      "min": [
        0.0,
        0.0
      ],
      "type": "VEC2"
    },
    {
      "bufferView": 0,
      "byteOffset": 471636,
      "componentType": 5125,
      "count": 111909,
      "type": "SCALAR"
    },
    {
      "bufferView": 2,
      "byteOffset": 3145536,
      "componentType": 5126,
      "count": 65532,
      "max": [
        71.29088592529297,
        281.7308654785156,
        100.7529296875
      ],
      "min": [
        -555.7262573242188,
        0.41547781229019165,
        -136.43116760253906
      ],
      "type": "VEC3"
    },
    {
      "bufferView": 2,
      "byteOffset": 3931920,
      "componentType": 5126,
      "count": 65532,
      "max": [
        0.9998169541358948,
        0.9999641180038452,
        1.0
      ],
      "min": [
        -0.9998021721839905,
        -0.999964714050293,
        -1.0
      ],
      "type": "VEC3"
    },
    {
      "bufferView": 1,
      "byteOffset": 1048512,
      "componentType": 5126,
      "count": 65532,
      "max": [
        1.0,
        1.0
      ],
      "min": [
        0.0,
        0.0
      ],
      "type": "VEC2"
    },
    {
      "bufferView": 0,
      "byteOffset": 919272,
      "componentType": 5125,
      "count": 110490,
      "type": "SCALAR"
    },
    {
      "bufferView": 2,
      "byteOffset": 4718304,
      "componentType": 5126,
      "count": 65534,
      "max": [
        0.2200165092945099,
        264.32965087890625,
        147.20753479003906
      ],
      "min": [
        -440.43701171875,
        -101.04109954833984,
        -139.001708984375
      ],
      "type": "VEC3"
    },
    {
      "bufferView": 2,
      "byteOffset": 5504712,
      "componentType": 5126,
      "count": 65534,
      "max": [
        0.9996593594551086,
        0.9998526573181152,
        1.0
      ],
      "min": [
        -0.9996529817581177,
        -0.9998869299888611,
        -1.0
      ],
      "type": "VEC3"
    },
    {
      "bufferView": 1,
      "byteOffset": 1572768,
      "componentType": 5126,
      "count": 65534,
      "max": [
        1.0,
        1.0
      ],
      "min": [
        0.0,
        0.0
      ],
      "type": "VEC2"
    },
    {
      "bufferView": 0,
      "byteOffset": 1361232,
      "componentType": 5125,
      "count": 100248,
      "type": "SCALAR"
    },
    {
      "bufferView": 2,
      "byteOffset": 6291120,
      "componentType": 5126,
      "count": 65534,
      "max": [
        272.7850036621094,
        432.7843933105469,
        147.20753479003906
      ],
      "min": [
        -648.572998046875,
        -290.9532165527344,
        -154.36680603027344
      ],
      "type": "VEC3"
    },
    {
      "bufferView": 2,
      "byteOffset": 7077528,
      "componentType": 5126,
      "count": 65534,
      "max": [
        0.9999998211860657,
        0.9999915361404419,
        1.0
      ],
      "min": [
        -0.9999998807907104,
        -0.9999915361404419,
        -1.0
      ],
      "type": "VEC3"
    },
    {
      "bufferView": 1,
      "byteOffset": 2097040,
      "componentType": 5126,
      "count": 65534,
      "max": [
        1.0,
        1.0
      ],
      "min": [
        0.0,
        0.0
      ],
      "type": "VEC2"
    },
    {
      "bufferView": 0,
      "byteOffset": 1762224,
      "componentType": 5125,
      "count": 114846,
      "type": "SCALAR"
    },
    {
      "bufferView": 2,
      "byteOffset": 7863936,
      "componentType": 5126,
      "count": 65532,
      "max": [
        231.05250549316406,
        435.62841796875,
        199.22467041015625
      ],
      "min": [
        -638.1292724609375,
        -276.6357727050781,
        -150.81764221191406
      ],
      "type": "VEC3"
    },
    {
      "bufferView": 2,
      "byteOffset": 8650320,
      "componentType": 5126,
      "count": 65532,
      "max": [
        0.9999570250511169,
        0.9999530911445618,
        1.0
      ],
      "min": [
        -0.9999571442604065,
        -0.9998728036880493,
        -1.0
      ],
      "type": "VEC3"
    },
    {
      "bufferView": 1,
      "byteOffset": 2621312,
      "componentType": 5126,
      "count": 65532,
      "max": [
        1.0,
        1.0
      ],
      "min": [
        0.0,
        0.0
      ],
      "type": "VEC2"
    },
    {
      "bufferView": 0,
      "byteOffset": 2221608,
      "componentType": 5125,
      "count": 98379,
      "type": "SCALAR"
    },
    {
      "bufferView": 2,
      "byteOffset": 9436704,
      "componentType": 5126,
      "count": 65532,
      "max": [
        -25.643131256103516,
        273.5783996582031,
        72.21050262451172
      ],
      "min": [
        -561.7899169921875,
        -69.18199157714844,
        -137.17044067382813
      ],
      "type": "VEC3"
    },
    {
      "bufferView": 2,
      "byteOffset": 10223088,
      "componentType": 5126,
      "count": 65532,
      "max": [
        0.9999468922615051,
        0.999997615814209,
        1.0
      ],
      "min": [
        -0.9999468922615051,
        -0.9999915361404419,
        -1.0
      ],
      "type": "VEC3"
    },
    {
      "bufferView": 1,
      "byteOffset": 3145568,
      "componentType": 5126,
      "count": 65532,
      "max": [
        1.0,
        1.0
      ],
      "min": [
        0.0,
        0.0
      ],
      "type": "VEC2"
    },
    {
      "bufferView": 0,
      "byteOffset": 2615124,
      "componentType": 5125,
      "count": 108084,
      "type": "SCALAR"
    },
    {
      "bufferView": 2,
      "byteOffset": 11009472,
      "componentType": 5126,
      "count": 65532,
      "max": [
        -130.36634826660156,
        9.4965181350708,
        -69.21025085449219
      ],
      "min": [
        -355.9227600097656,
        -96.7044906616211,
        -137.46865844726563
      ],
      "type": "VEC3"
    },
    {
      "bufferView": 2,
      "byteOffset": 11795856,
      "componentType": 5126,
      "count": 65532,
      "max": [
        0.9998749494552612,
        0.9999569654464722,
        0.9999879598617554
      ],
      "min": [
        -0.9998746514320374,
        -0.9996677041053772,
        -0.999994158744812
      ],
      "type": "VEC3"
    },
    {
      "bufferView": 1,
      "byteOffset": 3669824,
      "componentType": 5126,
      "count": 65532,
      "max": [
        1.0,
        1.0
      ],
      "min": [
        0.0,
        0.0
      ],
      "type": "VEC2"
    },
    {
      "bufferView": 0,
      "byteOffset": 3047460,
      "componentType": 5125,
      "count": 107535,
      "type": "SCALAR"
    },
    {
      "bufferView": 2,
      "byteOffset": 12582240,
      "componentType": 5126,
      "count": 65532,
      "max": [
        56.14358139038086,
        284.7358703613281,
        99.25203704833984
      ],
      "min": [
        -271.5523681640625,
        -129.8101043701172,
        -137.46865844726563
      ],
      "type": "VEC3"
    },
    {
      "bufferView": 2,
      "byteOffset": 13368624,
      "componentType": 5126,
      "count": 65532,
      "max": [
        0.9999897480010986,
        0.9999703168869019,
        0.999988853931427
      ],
      "min": [
        -0.9999849796295166,
        -0.9999703168869019,
        -0.999988853931427
      ],
      "type": "VEC3"
    },
    {
      "bufferView": 1,
      "byteOffset": 4194080,
      "componentType": 5126,
      "count": 65532,
      "max": [
        1.0,
        1.0
      ],
      "min": [
        0.0,
        0.0
      ],
      "type": "VEC2"
    },
    {
      "bufferView": 0,
      "byteOffset": 3477600,
      "componentType": 5125,
      "count": 102102,
      "type": "SCALAR"
    },
    {
      "bufferView": 2,
      "byteOffset": 14155008,
      "componentType": 5126,
      "count": 56858,
      "max": [
        6.870558738708496,
        318.3112487792969,
        91.26677703857422
      ],
      "min": [
        -582.8596801757813,
        -94.12688446044922,
        -137.43955993652344
      ],
      "type": "VEC3"
    },
    {
      "bufferView": 2,
      "byteOffset": 14837304,
      "componentType": 5126,
      "count": 56858,
      "max": [
        0.9999569058418274,
        0.9999870657920837,
        1.0
      ],
      "min": [
        -0.9999571442604065,
        -0.9999792575836182,
        -1.0
      ],
      "type": "VEC3"
    },
    {
      "bufferView": 1,
      "byteOffset": 4718336,
      "componentType": 5126,
      "count": 56858,
      "max": [
        1.0,
        1.0
      ],
      "min": [
        0.0,
        0.0
      ],
      "type": "VEC2"
    },
    {
      "bufferView": 0,
      "byteOffset": 3886008,
      "componentType": 5125,
      "count": 101136,
      "type": "SCALAR"
    }
  ],
  "asset": {
    "extras": {
      "author": "Voxel_CG (https://sketchfab.com/cg.optatus)",
      "license": "CC-BY-4.0 (http://creativecommons.org/licenses/by/4.0/)",
      "source": "https://sketchfab.com/3d-models/medieval-weapon-market-786d25ea33be4bb1b06a75cc4c2467ca",
      "title": "Medieval Weapon Market"
    },
    "generator": "Sketchfab-14.94.0",
    "version": "2.0"
  },
  "bufferViews": [
    {
      "buffer": 0,
      "byteLength": 4290552,
      "name": "floatBufferViews",
      "target": 34963
    },
    {
      "buffer": 0,
      "byteLength": 5173200,
      "byteOffset": 4290552,
      "byteStride": 8,
      "name": "floatBufferViews",
      "target": 34962
    },
    {
      "buffer": 0,
      "byteLength": 15519600,
      "byteOffset": 9463752,
      "byteStride": 12,
      "name": "floatBufferViews",
      "target": 34962
    }
  ],
  "buffers": [
    {
      "byteLength": 24983352,
      "uri": "scene.bin"
    }
  ],
  "extensionsUsed": [
    "KHR_materials_specular"
  ],
  "materials": [
    {
      "doubleSided": true,
      "extensions": {
        "KHR_materials_specular": {
          "specularColorFactor": [
            1.0,
            1.0,
            1.0
          ],
          "specularFactor": 0.15666542956748172
        }
      },
      "name": "Material",
      "pbrMetallicRoughness": {
        "baseColorFactor": [
          0.06559808939009447,
          0.02819881657660777,
          0.029258066469686844,
          1.0
        ],
        "metallicFactor": 0.0,
        "roughnessFactor": 0.6920657325553805
      }
    }
  ],
  "meshes": [
    {
      "name": "Lavka.250_Material_0",
      "primitives": [
        {
          "attributes": {
            "NORMAL": 1,
            "POSITION": 0,
            "TEXCOORD_0": 2
          },
          "indices": 3,
          "material": 0,
          "mode": 4
        }
      ]
    },
    {
      "name": "Lavka.250_Material_0",
      "primitives": [
        {
          "attributes": {
            "NORMAL": 5,
            "POSITION": 4,
            "TEXCOORD_0": 6
          },
          "indices": 7,
          "material": 0,
          "mode": 4
        }
      ]
    },
    {
      "name": "Lavka.250_Material_0",
      "primitives": [
        {
          "attributes": {
            "NORMAL": 9,
            "POSITION": 8,
            "TEXCOORD_0": 10
          },
          "indices": 11,
          "material": 0,
          "mode": 4
        }
      ]
    },
    {
      "name": "Lavka.250_Material_0",
      "primitives": [
        {
          "attributes": {
            "NORMAL": 13,
            "POSITION": 12,
            "TEXCOORD_0": 14
          },
          "indices": 15,
          "material": 0,
          "mode": 4
        }
      ]
    },
    {
      "name": "Lavka.250_Material_0",
      "primitives": [
        {
          "attributes": {
            "NORMAL": 17,
            "POSITION": 16,
            "TEXCOORD_0": 18
          },
          "indices": 19,
          "material": 0,
          "mode": 4
        }
      ]
    },
    {
      "name": "Lavka.250_Material_0",
      "primitives": [
        {
          "attributes": {
            "NORMAL": 21,
            "POSITION": 20,
            "TEXCOORD_0": 22
          },
          "indices": 23,
          "material": 0,
          "mode": 4
        }
      ]
    },
    {
      "name": "Lavka.250_Material_0",
      "primitives": [
        {
          "attributes": {
            "NORMAL": 25,
            "POSITION": 24,
            "TEXCOORD_0": 26
          },
          "indices": 27,
          "material": 0,
          "mode": 4
        }
      ]
    },
    {
      "name": "Lavka.250_Material_0",
      "primitives": [
        {
          "attributes": {
            "NORMAL": 29,
            "POSITION": 28,
            "TEXCOORD_0": 30
          },
          "indices": 31,
          "material": 0,
          "mode": 4
        }
      ]
    },
    {
      "name": "Lavka.250_Material_0",
      "primitives": [
        {
          "attributes": {
            "NORMAL": 33,
            "POSITION": 32,
            "TEXCOORD_0": 34
          },
          "indices": 35,
          "material": 0,
          "mode": 4
        }
      ]
    },
    {
      "name": "Lavka.250_Material_0",
      "primitives": [
        {
          "attributes": {
            "NORMAL": 37,
            "POSITION": 36,
            "TEXCOORD_0": 38
          },
          "indices": 39,
          "material": 0,
          "mode": 4
        }
      ]
    }
  ],
  "nodes": [
    {
      "children": [
        1
      ],
      "matrix": [
        1.0,
        0.0,
        0.0,
        0.0,
        0.0,
        2.220446049250313e-16,
        -1.0,
        0.0,
        0.0,
        1.0,
        2.220446049250313e-16,
        0.0,
        0.0,
        0.0,
        0.0,
        1.0
      ],
      "name": "Sketchfab_model"
    },
    {
      "children": [
        2
      ],
      "matrix": [
        0.009999999776482582,
        0.0,
        0.0,
        0.0,
        0.0,
        0.0,
        0.009999999776482582,
        0.0,
        0.0,
        -0.009999999776482582,
        0.0,
        0.0,
        0.0,
        0.0,
        0.0,
        1.0
      ],
      "name": "8d7c793c259f43f0be38b4adc2342177.fbx"
    },
    {
      "children": [
        3,
        5
      ],
      "name": "RootNode"
    },
    {
      "children": [
        4
      ],
      "matrix": [
        -37.32842425322216,
        -20.107732168543045,
        -90.5663894696462,
        0.0,
        -7.66205147830274,
        97.95753789418953,
        -18.59068952062459,
        0.0,
        92.45475018000596,
        -0.00036807256937192856,
        -38.10666140110364,
        0.0,
        437.7713623046875,
        321.4867248535156,
        968.0545043945313,
        1.0
      ],
      "name": "Camera"
    },
    {
      "name": "Object_4"
    },
    {
      "children": [
        6,
        7,
        8,
        9,
        10,
        11,
        12,
        13,
        14,
        15
      ],
      "matrix": [
        0.9926962823056179,
        1.6476642849167881e-10,
        -0.1206413259011949,
        0.0,
        -0.12064132590119479,
        -4.3731419036713076e-08,
        -0.992696282305617,
        0.0,
        -5.439378742198881e-09,
        1.0000001192092884,
        -4.339213417380791e-08,
        0.0,
        300.27227783203125,
        137.3134307861328,
        31.486717224121094,
        1.0
      ],
      "name": "Lavka.250"
    },
    {
      "mesh": 0,
      "name": "Lavka.250_Material_0"
    },
    {
      "mesh": 1,
      "name": "Lavka.250_Material_0"
    },
    {
      "mesh": 2,
      "name": "Lavka.250_Material_0"
    },
    {
      "mesh": 3,
      "name": "Lavka.250_Material_0"
    },
    {
      "mesh": 4,
      "name": "Lavka.250_Material_0"
    },
    {
      "mesh": 5,
      "name": "Lavka.250_Material_0"
    },
    {
      "mesh": 6,
      "name": "Lavka.250_Material_0"
    },
    {
      "mesh": 7,
      "name": "Lavka.250_Material_0"
    },
    {
      "mesh": 8,
      "name": "Lavka.250_Material_0"
    },
    {
      "mesh": 9,
      "name": "Lavka.250_Material_0"
    }
  ],
  "scene": 0,
  "scenes": [
    {
      "name": "Sketchfab_Scene",
      "nodes": [
        0
      ]
    }
  ]
}
